<svg width="16" height="16" viewBox="0 0 16 16" fill="none" xmlns="http://www.w3.org/2000/svg">
<path d="M13.6254 7.40625H4.48322L9.9551 2.65625C10.0426 2.57969 9.98947 2.4375 9.87385 2.4375H8.49104C8.4301 2.4375 8.37229 2.45937 8.32697 2.49844L2.42229 7.62187C2.36821 7.66875 2.32483 7.72671 2.29511 7.79181C2.26538 7.85692 2.25 7.92765 2.25 7.99922C2.25 8.07079 2.26538 8.14152 2.29511 8.20663C2.32483 8.27173 2.36821 8.32968 2.42229 8.37656L8.36135 13.5312C8.38479 13.5516 8.41291 13.5625 8.4426 13.5625H9.87229C9.98791 13.5625 10.041 13.4188 9.95354 13.3438L4.48322 8.59375H13.6254C13.6942 8.59375 13.7504 8.5375 13.7504 8.46875V7.53125C13.7504 7.4625 13.6942 7.40625 13.6254 7.40625Z" fill="white"/>
</svg>
