<svg width="56" height="44" viewBox="0 0 56 44" fill="none" xmlns="http://www.w3.org/2000/svg">
<path d="M54 0H2C0.89375 0 0 0.89375 0 2V42C0 43.1063 0.89375 44 2 44H54C55.1063 44 56 43.1063 56 42V2C56 0.89375 55.1063 0 54 0ZM17.125 9C19.3312 9 21.125 10.7938 21.125 13C21.125 15.2062 19.3312 17 17.125 17C14.9188 17 13.125 15.2062 13.125 13C13.125 10.7938 14.9188 9 17.125 9ZM49.2438 36.3187C49.1527 36.3952 49.0377 36.4373 48.9188 36.4375H7.075C6.8 36.4375 6.575 36.2125 6.575 35.9375C6.575 35.8188 6.61875 35.7062 6.69375 35.6125L17.3375 22.9875C17.5125 22.775 17.8313 22.75 18.0438 22.925C18.0625 22.9437 18.0875 22.9625 18.1063 22.9875L24.3188 30.3625L34.2 18.6437C34.375 18.4312 34.6937 18.4062 34.9062 18.5812C34.925 18.6 34.95 18.6187 34.9688 18.6437L49.3187 35.6188C49.4812 35.825 49.4563 36.1437 49.2438 36.3187Z" fill="#180822"/>
</svg>
