<svg width="64" height="67" viewBox="0 0 64 67" fill="none" xmlns="http://www.w3.org/2000/svg">
<rect width="64" height="66.56" fill="url(#paint0_linear_407_84)"/>
<path d="M27.529 29.9408H0V25.3527H27.529C28.1742 25.3527 28.7119 25.1376 29.142 24.7075C29.5961 24.2534 29.8231 23.7038 29.8231 23.0586C29.8231 22.4134 29.5961 21.8757 29.142 21.4456C28.7119 20.9915 28.1742 20.7645 27.529 20.7645H18.3527C16.4409 20.7645 14.816 20.0954 13.4777 18.7572C12.1395 17.419 11.4704 15.794 11.4704 13.8823C11.4704 11.9705 12.1395 10.3455 13.4777 9.00732C14.816 7.66911 16.4409 7 18.3527 7H32.1172V11.5882H18.3527C17.7075 11.5882 17.1578 11.8152 16.7038 12.2692C16.2737 12.6994 16.0586 13.237 16.0586 13.8823C16.0586 14.5275 16.2737 15.0771 16.7038 15.5311C17.1578 15.9613 17.7075 16.1763 18.3527 16.1763H27.529C29.4408 16.1763 31.0657 16.8454 32.4039 18.1837C33.7422 19.5219 34.4113 21.1469 34.4113 23.0586C34.4113 24.9703 33.7422 26.5953 32.4039 27.9335C31.0657 29.2717 29.4408 29.9408 27.529 29.9408Z" fill="#E7EAF9"/>
<path d="M59.3401 66.7168L56.7951 62.1286H42.5288C39.3505 62.1286 36.6383 61.0174 34.392 58.795C32.1696 56.5487 31.0584 53.8365 31.0584 50.6582C31.0584 47.4799 32.1696 44.7796 34.392 42.5572C36.6383 40.3109 39.3505 39.1878 42.5288 39.1878H60.8815L58.5874 43.7759H42.5288C40.6171 43.7759 38.9921 44.445 37.6539 45.7833C36.3157 47.1215 35.6465 48.7465 35.6465 50.6582C35.6465 52.5699 36.3157 54.1949 37.6539 55.5331C38.9921 56.8713 40.6171 57.5404 42.5288 57.5404H54.2501L51.7051 52.9523H42.5288V48.3641H53.9992L64 66.7168H59.3401Z" fill="#E7EAF9"/>
<defs>
<linearGradient id="paint0_linear_407_84" x1="0" y1="33.2335" x2="74.6557" y2="33.2335" gradientUnits="userSpaceOnUse">
<stop stop-color="#180822"/>
<stop offset="1" stop-color="#C055C1"/>
</linearGradient>
</defs>
</svg>
