<svg width="64" height="67" viewBox="0 0 64 67" fill="none" xmlns="http://www.w3.org/2000/svg">
<rect width="64" height="66.56" fill="url(#paint0_linear_412_87)"/>
<path d="M30.4411 29.9408H2.91211V25.3527H30.4411C31.0863 25.3527 31.624 25.1376 32.0542 24.7075C32.5082 24.2534 32.7352 23.7038 32.7352 23.0586C32.7352 22.4134 32.5082 21.8757 32.0542 21.4456C31.624 20.9915 31.0863 20.7645 30.4411 20.7645H21.2648C19.3531 20.7645 17.7281 20.0954 16.3899 18.7572C15.0516 17.419 14.3825 15.794 14.3825 13.8823C14.3825 11.9705 15.0516 10.3455 16.3899 9.00732C17.7281 7.66911 19.3531 7 21.2648 7H35.0293V11.5882H21.2648C20.6196 11.5882 20.07 11.8152 19.6159 12.2692C19.1858 12.6994 18.9707 13.237 18.9707 13.8823C18.9707 14.5275 19.1858 15.0771 19.6159 15.5311C20.07 15.9613 20.6196 16.1763 21.2648 16.1763H30.4411C32.3529 16.1763 33.9778 16.8454 35.3161 18.1837C36.6543 19.5219 37.3234 21.1469 37.3234 23.0586C37.3234 24.9703 36.6543 26.5953 35.3161 27.9335C33.9778 29.2717 32.3529 29.9408 30.4411 29.9408Z" fill="#E7EAF9"/>
<path d="M56.2212 64.5L53.6762 59.9118H39.4099C36.2316 59.9118 33.5193 58.8006 31.2731 56.5782C29.0507 54.3319 27.9395 51.6197 27.9395 48.4414C27.9395 45.2631 29.0507 42.5628 31.2731 40.3404C33.5193 38.0941 36.2316 36.971 39.4099 36.971H57.7626L55.4685 41.5592H39.4099C37.4981 41.5592 35.8732 42.2283 34.535 43.5665C33.1967 44.9047 32.5276 46.5297 32.5276 48.4414C32.5276 50.3531 33.1967 51.9781 34.535 53.3163C35.8732 54.6546 37.4981 55.3237 39.4099 55.3237H51.1312L48.5862 50.7355H39.4099V46.1473H50.8803L60.8811 64.5H56.2212Z" fill="#E7EAF9"/>
<path d="M46 22.75L53.5 7L61 22.75H46ZM56.1953 19.75L53.5 14.125L50.8047 19.75H56.1953Z" fill="#75D64C"/>
<path d="M9 45H18V54H9V45ZM6 42V57H21V42H6Z" fill="#65C6DC"/>
<defs>
<linearGradient id="paint0_linear_412_87" x1="0" y1="33.2335" x2="74.6557" y2="33.2335" gradientUnits="userSpaceOnUse">
<stop stop-color="#180822"/>
<stop offset="1" stop-color="#C055C1"/>
</linearGradient>
</defs>
</svg>
