<svg width="136" height="64" viewBox="0 0 136 64" fill="none" xmlns="http://www.w3.org/2000/svg">
<path d="M23.3299 29.0638H0V25.1886H23.3299C23.8767 25.1886 24.3324 25.007 24.6969 24.6437C25.0817 24.2602 25.2741 23.796 25.2741 23.251C25.2741 22.7061 25.0817 22.252 24.6969 21.8887C24.3324 21.5052 23.8767 21.3135 23.3299 21.3135H15.5533C13.9331 21.3135 12.556 20.7483 11.4219 19.6181C10.2878 18.4878 9.7208 17.1154 9.7208 15.5007C9.7208 13.886 10.2878 12.5136 11.4219 11.3833C12.556 10.2531 13.9331 9.68794 15.5533 9.68794H27.2182V13.5631H15.5533C15.0065 13.5631 14.5407 13.7549 14.1559 14.1383C13.7914 14.5016 13.6091 14.9558 13.6091 15.5007C13.6091 16.0456 13.7914 16.5099 14.1559 16.8933C14.5407 17.2566 15.0065 17.4383 15.5533 17.4383H23.3299C24.95 17.4383 26.3272 18.0034 27.4612 19.1337C28.5953 20.2639 29.1624 21.6364 29.1624 23.251C29.1624 24.8657 28.5953 26.2382 27.4612 27.3684C26.3272 28.4987 24.95 29.0638 23.3299 29.0638Z" fill="white"/>
<path d="M41.3134 25.0675L38.1237 19.3759H42.0121L44.26 23.4327C45.3536 22.3024 45.9004 20.9502 45.9004 19.3759C45.9004 17.7612 45.3333 16.3888 44.1992 15.2585C43.0651 14.1282 41.688 13.5631 40.0679 13.5631C38.4478 13.5631 37.0707 14.1282 35.9366 15.2585C34.8025 16.3888 34.2354 17.7612 34.2354 19.3759C34.2354 20.9905 34.8025 22.363 35.9366 23.4932C37.0707 24.6235 38.4478 25.1886 40.0679 25.1886C40.4932 25.1886 40.9083 25.1483 41.3134 25.0675ZM46.2042 26.9143L51.7329 36.8142H47.8445L43.2575 28.5794C42.2652 28.9023 41.202 29.0638 40.0679 29.0638C37.3744 29.0638 35.0759 28.1253 33.1722 26.2483C31.2888 24.351 30.3471 22.0602 30.3471 19.3759C30.3471 16.6915 31.2888 14.4108 33.1722 12.5338C35.0759 10.6365 37.3744 9.68794 40.0679 9.68794C42.7614 9.68794 45.0498 10.6365 46.9332 12.5338C48.8369 14.4108 49.7887 16.6915 49.7887 19.3759C49.7887 22.0602 48.847 24.3409 46.9636 26.218C46.7206 26.4602 46.4674 26.6923 46.2042 26.9143Z" fill="white"/>
<path d="M51.824 19.3759V9.68794H55.7123V19.3759C55.7123 20.9905 56.2794 22.363 57.4134 23.4932C58.5475 24.6235 59.9247 25.1886 61.5448 25.1886C63.1649 25.1886 64.542 24.6235 65.6761 23.4932C66.8102 22.363 67.3773 20.9905 67.3773 19.3759V0H71.2656V19.3759C71.2656 22.0602 70.3138 24.351 68.4101 26.2483C66.5267 28.1253 64.2383 29.0638 61.5448 29.0638C58.8513 29.0638 56.5528 28.1253 54.6491 26.2483C52.7657 24.351 51.824 22.0602 51.824 19.3759Z" fill="white"/>
<path d="M78.5562 29.0638H74.6679V9.68794H78.5562V29.0638Z" fill="white"/>
<path d="M89.2187 13.5631H80.6522V9.68794H95.2334L86.667 25.1886H107.87V29.0638H80.6522L89.2187 13.5631Z" fill="white"/>
<path d="M117.348 13.5631H108.782V9.68794H123.363L114.797 25.1886H136V29.0638H108.782L117.348 13.5631Z" fill="white"/>
<path d="M50.2888 60.1248L48.132 56.2496H36.0417C33.3482 56.2496 31.0497 55.3111 29.146 53.4341C27.2626 51.5369 26.3209 49.2461 26.3209 46.5617C26.3209 43.8773 27.2626 41.5966 29.146 39.7196C31.0497 37.8224 33.3482 36.8738 36.0417 36.8738H51.595L49.6508 40.749H36.0417C34.4216 40.749 33.0445 41.3141 31.9104 42.4443C30.7763 43.5746 30.2092 44.9471 30.2092 46.5617C30.2092 48.1764 30.7763 49.5488 31.9104 50.6791C33.0445 51.8093 34.4216 52.3745 36.0417 52.3745H45.9752L43.8184 48.4993H36.0417V44.6241H45.7625L54.2378 60.1248H50.2888Z" fill="white"/>
<path d="M53.0531 56.2496L62.7739 35.905L72.4947 56.2496H68.1203L62.7739 45.1085L57.4275 56.2496H53.0531Z" fill="white"/>
<path d="M77.5374 44.6241V64H73.649V36.8738H77.5374L85.314 51.4057L93.0906 36.8738H96.979V56.2496H93.0906V44.6241L87.2582 56.2496H83.3698L77.5374 44.6241Z" fill="white"/>
<path d="M132.399 48.4993H110.041V44.6241H132.399V48.4993ZM120.734 36.8738V40.749H105.181V52.3745H120.734V56.2496H101.293V36.8738H120.734Z" fill="white"/>
</svg>
