<svg width="16" height="16" viewBox="0 0 16 16" fill="none" xmlns="http://www.w3.org/2000/svg">
<path d="M7.99972 1.14286C11.7866 1.14286 14.8569 4.21315 14.8569 8C14.8569 11.7869 11.7866 14.8571 7.99972 14.8571C4.21286 14.8571 1.14258 11.7869 1.14258 8C1.14258 4.21315 4.21286 1.14286 7.99972 1.14286ZM7.99972 2C4.68601 2 1.99972 4.68629 1.99972 8C1.99972 11.3137 4.68601 14 7.99972 14C11.3134 14 13.9997 11.3137 13.9997 8C13.9997 4.68629 11.3134 2 7.99972 2ZM7.99972 4.57143C8.11339 4.57143 8.22239 4.61659 8.30277 4.69696C8.38314 4.77733 8.42829 4.88634 8.42829 5V7.57143H10.9997C11.1134 7.57143 11.2224 7.61659 11.3028 7.69696C11.3831 7.77733 11.4283 7.88634 11.4283 8C11.4283 8.11367 11.3831 8.22268 11.3028 8.30305C11.2224 8.38342 11.1134 8.42858 10.9997 8.42858H8.42829V11C8.42829 11.1137 8.38314 11.2227 8.30277 11.303C8.22239 11.3834 8.11339 11.4286 7.99972 11.4286C7.88606 11.4286 7.77705 11.3834 7.69668 11.303C7.6163 11.2227 7.57115 11.1137 7.57115 11V8.42858H4.99972C4.88606 8.42858 4.77705 8.38342 4.69668 8.30305C4.6163 8.22268 4.57115 8.11367 4.57115 8C4.57115 7.88634 4.6163 7.77733 4.69668 7.69696C4.77705 7.61659 4.88606 7.57143 4.99972 7.57143H7.57115V5C7.57115 4.88634 7.6163 4.77733 7.69668 4.69696C7.77705 4.61659 7.88606 4.57143 7.99972 4.57143V4.57143Z" fill="white"/>
</svg>
