<svg width="16" height="16" viewBox="0 0 16 16" fill="none" xmlns="http://www.w3.org/2000/svg">
<path d="M11.3333 14.6667H4.66667C4.31304 14.6667 3.97391 14.5262 3.72386 14.2761C3.47381 14.0261 3.33333 13.687 3.33333 13.3333V4.66667H2V3.33334H4.66667V2.66667C4.66667 2.31305 4.80714 1.97391 5.05719 1.72386C5.30724 1.47381 5.64638 1.33334 6 1.33334H10C10.3536 1.33334 10.6928 1.47381 10.9428 1.72386C11.1929 1.97391 11.3333 2.31305 11.3333 2.66667V3.33334H14V4.66667H12.6667V13.3333C12.6667 13.687 12.5262 14.0261 12.2761 14.2761C12.0261 14.5262 11.687 14.6667 11.3333 14.6667ZM4.66667 4.66667V13.3333H11.3333V4.66667H4.66667ZM6 2.66667V3.33334H10V2.66667H6ZM10 12H8.66667V6H10V12ZM7.33333 12H6V6H7.33333V12Z" fill="white"/>
</svg>
